<svg xmlns="http://www.w3.org/2000/svg" width="100" height="100" viewBox="0 0 2845 2845" stroke-linejoin="round"><path d="M419 555.8l0.3 25.4c0.2 14 40.7 476.9 90 1028.7l89.7 1003.2 403.1 112.9c221.7 62.1 407.7 113.2 413.3 113.6 5.6 0.4 194-50.2 418.8-112.4 360.3-99.8 408.9-114.8 411.5-127.1 3.6-17.2 180-2007.6 179.9-2028.9l-0.1-15.3 -1003.2 0 -1003.2 0Z" fill="#fff"/><path d="M1005.4 2732.8l-406.7-113.7 -5.3-30.1c-4.7-26.7-181.1-1996.6-181.1-2022.6 0-9.4 103-10.5 1010-10.5 957.4 0 1010 0.6 1009.9 11.9 -0.3 48.6-182.9 2044.5-187.4 2048.5 -5.7 5-792.9 224.3-819.2 228.2 -7.5 1.1-196.6-49.2-420.3-111.7Zm673.3-401.7c136.7-37.7 250.5-70.5 252.9-72.9 2.4-2.4 18.4-164.5 35.5-360.2 17.1-195.7 32.9-368.8 35-384.7l3.8-28.8 -295.3 0 -295.3 0 0 250.8 318.8 0 -3.2 15.3c-1.7 8.4-8.5 80.5-15.1 160.2 -6.9 84.5-15.2 148.2-19.7 152.7 -4.3 4.3-69.3 24.2-144.4 44.2l-136.6 36.4 0 127.8c0 87.2 2.3 127.8 7.3 127.8 4 0 119.2-30.8 255.9-68.5Zm323.4-1004.1c-4.5-33.2-44.4-478.7-44.4-495.5 0-10.2-23.5-11.2-267.8-11.2l-267.8 0 0 262.3 120.3 4.6c66.2 2.6 135.8 6.4 154.8 8.6l34.4 4 8.4 102.6c4.6 56.4 10.1 114 12.2 128l3.8 25.4 249.9 0 -3.9-28.8Z" fill="#eaebec"/><path d="M1002.2 2726l-403.1-112.9 -89.7-1003.2c-49.3-551.8-89.8-1014.7-90-1028.6l-0.3-25.4 2006.5 0 0.1 15.3c0.2 21.3-176.3 2011.7-179.9 2028.9 -2.6 12.3-51.2 27.4-411.5 127.1 -224.7 62.2-413.2 112.8-418.8 112.4 -5.6-0.4-191.6-51.5-413.3-113.6l0 0Zm676.8-390.1c139.4-38.7 255.3-73.6 257.8-77.6 2.4-3.9 19.1-174.3 37-378.6 17.9-204.3 34.1-376.8 35.9-383.3 3.1-11.2-20.6-11.9-429.7-11.9l-432.9 0 18.4-194.9c10.1-107.2 18.7-195.2 19-195.5 0.3-0.3 63.8-2.4 141.2-4.5 126.8-3.5 388.4 6.6 397.2 15.4 3.3 3.3 24.8 214.3 24.8 243.1 0 14.2 1.9 14.4 131.3 14.4l131.3 0 -3.1-28.8c-1.7-15.8-12.8-138.6-24.7-272.8l-21.6-244 -506.6-1.7c-403-1.4-506.6 0-506.6 6.8 0 4.7-3 34.4-6.6 66.1 -8.7 76.7-74.7 817.6-74.7 838.1l0 16 862.1 0 -3.8 25.4c-2.1 14-8.8 84.9-14.9 157.6 -6.1 72.7-13 134.1-15.4 136.4 -6.3 6.1-259.9 73.8-275.7 73.7 -7.3-0.1-72.8-16.4-145.5-36.3l-132.2-36.2 -4.8-56.9c-2.7-31.3-6.7-76-9-99.3l-4.2-42.4 -128.3 0 -128.3 0 0.3 25.4c0.5 47.5 31.4 367.7 35.8 372.2 5.2 5.2 497.8 143.6 512.9 144.2 5.6 0.2 124.2-31.3 263.5-70.1l0 0Z" fill="#f0be25"/><path d="M1002.2 2726l-403.1-112.9 -89.7-1003.2c-49.3-551.8-89.8-1014.7-90-1028.6l-0.3-25.4 2006.5 0 0.1 15.3c0.2 21.3-176.3 2011.7-179.9 2028.9 -2.6 12.3-51.2 27.4-411.5 127.1 -224.7 62.2-413.2 112.8-418.8 112.4 -5.6-0.4-191.6-51.5-413.3-113.6l0 0Zm751.8-151c177.3-48.9 325.8-92.4 329.8-96.6 6.3-6.5 159.5-1685.1 158.9-1741.2l-0.2-18.6 -410.1 0 -410.1 0 0 94.9 -237.2 0c-185.2 0-237.3 1.9-237.3 8.5 0 4.7-3 34.4-6.6 66.1 -8.7 76.7-74.7 817.6-74.7 838.1l0 16 555.8 0 0 196.6c0 152.8-1.9 196.5-8.5 196.5 -4.7-0.1-68-16.4-140.7-36.3l-132.2-36.2 -4.8-56.9c-2.7-31.3-6.7-76-9-99.3l-4.2-42.4 -128.3 0 -128.3 0 0.3 25.4c0.8 72.7 32.3 369.5 39.6 374.1 4.5 2.8 122.4 36.7 262 75.3l253.9 70.3 0 127.4c0 70.1 2.1 127.4 4.6 127.4 2.6 0 149.7-40 327.1-89Zm-589.2-1283.6c9.7-106.2 19-194.3 20.7-195.7 1.6-1.5 55.6-4.1 119.9-5.9l116.9-3.2 0 397.9 -137.6 0 -137.6 0 17.7-193.1Z" fill="#e4a126"/><path d="M1056.2 315.2l0-64.4 183 0 0-125.4 0-125.4 128.8 0 0 379.6 -155.9 0 -155.9 0 0-64.4Zm372.8 13.6l0-50.8 84.7 0c46.6 0 84.7-1.7 84.7-3.8 0-2.1-38.1-45.2-84.7-95.7l-84.7-91.8 0-43.3 0-43.3 352.5 0 0 101.3 -82.7 1.9 -82.7 1.9 86.1 92.8 86.1 92.8 0 89 -179.6 0 -179.6 0 0-50.8Z" fill="#0e0e0f"/></svg>