<?xml version="1.0" encoding="UTF-8"?><svg xmlns="http://www.w3.org/2000/svg" xmlns:xlink="http://www.w3.org/1999/xlink" viewBox="0 0 24 24" version="1.1"><path d="M0 6v12h13L24 6zm4.2 3c1.698 0 2.25.398 2.25.398s-.302.754-.45 1.153c-.5-.2-2.5-.551-2.5.199 0 .3.102.5 1.602.848.597.152 1.5.453 1.699 1.351L8.35 9h1.747L12 13.75V9h2.25c1.25 0 2.25 1 2.25 2.25s-1 2.25-2.25 2.25h-.75V15h-2.75l-.3-.902c-.352.152-.75.25-1.2.25-.45 0-.848-.098-1.2-.25l-.3.902H6l.25-.598C5.8 14.75 5.098 15 4.2 15c-1.65 0-2.2-.45-2.2-.45l.398-1.3c.954.602 2.653.5 2.653 0s-.75-.55-1.75-.848C2.35 12.102 2 11.348 2 10.7 2 10.051 2.5 9 4.2 9zm9.3 1.5V12h.75c.398 0 .75-.352.75-.75a.771.771 0 0 0-.75-.75zm-4.25.2l-.75 2.148c.2.152.45.203.75.203s.55-.051.75-.203z" id="surface1"/><metadata><rdf:RDF xmlns:rdf="http://www.w3.org/1999/02/22-rdf-syntax-ns#" xmlns:rdfs="http://www.w3.org/2000/01/rdf-schema#" xmlns:dc="http://purl.org/dc/elements/1.1/"><rdf:Description about="https://iconscout.com/legal#licenses" dc:title="sap" dc:description="sap" dc:publisher="Iconscout" dc:date="2018-06-22" dc:format="image/svg+xml" dc:language="en"><dc:creator><rdf:Bag><rdf:li>Icons8</rdf:li></rdf:Bag></dc:creator></rdf:Description></rdf:RDF></metadata></svg>