<svg id="logo" xmlns="http://www.w3.org/2000/svg" viewBox="0 0 24 24"><defs><style>.cls-1{fill:#0b789e;}</style></defs><title>abap</title><path id="Tracé_11993" data-name="Tracé 11993" class="cls-1" d="M7.18,13.25H5.59l-.3.91h-1L6,9.76h.84l1.64,4.4h-1Zm-1.34-.73h1.1l-.55-1.65Zm2.77,1.64V9.76h1.54a2.05,2.05,0,0,1,1.21.31,1.12,1.12,0,0,1,.25,1.47,1,1,0,0,1-.46.36.94.94,0,0,1,.53.34,1.07,1.07,0,0,1,.2.63,1.19,1.19,0,0,1-.41,1,1.87,1.87,0,0,1-1.15.33Zm.91-1.92v1.19h.77a.74.74,0,0,0,.5-.15.5.5,0,0,0,.18-.42.56.56,0,0,0-.48-.62h-1Zm0-.63h.67c.45,0,.68-.19.68-.55a.51.51,0,0,0-.17-.43.9.9,0,0,0-.55-.13H9.52Zm5.27,1.64H13.2l-.3.91h-1l1.63-4.4h.84l1.65,4.4h-1Zm-1.34-.73h1.09L14,10.87Zm3.67.09v1.55h-.9V9.76h1.71a2,2,0,0,1,.87.19,1.3,1.3,0,0,1,.58.51,1.36,1.36,0,0,1,.2.76,1.26,1.26,0,0,1-.44,1,1.84,1.84,0,0,1-1.22.37Zm0-.73h.81a.82.82,0,0,0,.55-.17.63.63,0,0,0,.19-.48A.67.67,0,0,0,18,10.5h-.83Z"/></svg>