<?xml version="1.0" encoding="UTF-8" standalone="no"?><!DOCTYPE svg PUBLIC "-//W3C//DTD SVG 1.1//EN" "http://www.w3.org/Graphics/SVG/1.1/DTD/svg11.dtd"><svg width="100%" height="100%" viewBox="0 0 2845 2845" version="1.1" xmlns="http://www.w3.org/2000/svg" xmlns:xlink="http://www.w3.org/1999/xlink" xml:space="preserve" xmlns:serif="http://www.serif.com/" style="fill-rule:evenodd;clip-rule:evenodd;stroke-linejoin:round;stroke-miterlimit:2;"><path id="path118" d="M419.04,555.833l0.318,25.42c0.175,13.98 40.679,476.873 90.011,1028.65l89.693,1003.23l403.127,112.869c221.72,62.077 407.703,113.181 413.296,113.573c5.592,0.392 194.031,-50.198 418.756,-112.421c360.298,-99.763 408.938,-114.789 411.518,-127.138c3.594,-17.205 180.034,-2007.63 179.853,-2028.92l-0.129,-15.252l-1003.23,0l-1003.22,0Z" style="fill:#fff;fill-rule:nonzero;"/><path id="path88" d="M1005.38,2732.75l-406.712,-113.684l-5.315,-30.083c-4.724,-26.74 -181.095,-1996.62 -181.095,-2022.65c0,-9.42 102.978,-10.489 1010,-10.489c957.417,0 1010,0.617 1009.92,11.862c-0.319,48.569 -182.876,2044.54 -187.363,2048.51c-5.669,5.021 -792.867,224.33 -819.172,228.218c-7.456,1.102 -196.577,-49.155 -420.269,-111.681Zm673.334,-401.694c136.701,-37.703 250.52,-70.494 252.931,-72.87c2.41,-2.375 18.407,-164.462 35.547,-360.192c17.14,-195.73 32.894,-368.837 35.008,-384.682l3.845,-28.809l-295.282,0l-295.281,0l0,250.806l318.849,0l-3.171,15.252c-1.745,8.388 -8.525,80.474 -15.067,160.192c-6.933,84.468 -15.152,148.196 -19.7,152.744c-4.292,4.292 -69.253,24.183 -144.357,44.201l-136.554,36.397l0,127.755c0,87.198 2.331,127.755 7.343,127.755c4.038,0 119.189,-30.847 255.889,-68.549Zm323.444,-1004.15c-4.48,-33.215 -44.394,-478.714 -44.394,-495.512c0,-10.203 -23.465,-11.183 -267.752,-11.183l-267.752,0l0,262.265l120.319,4.638c66.176,2.55 135.819,6.432 154.763,8.626l34.444,3.988l8.362,102.574c4.599,56.416 10.079,114.013 12.177,127.993l3.816,25.42l249.904,0l-3.887,-28.809Z" style="fill:#eaebec;fill-rule:nonzero;"/><path id="path80" d="M1002.19,2725.99l-403.126,-112.868l-89.694,-1003.22c-49.331,-551.773 -89.837,-1014.66 -90.012,-1028.64l-0.318,-25.419l2006.45,0l0.13,15.252c0.181,21.295 -176.262,2011.72 -179.856,2028.92c-2.58,12.349 -51.218,27.376 -411.517,127.139c-224.724,62.223 -413.166,112.813 -418.758,112.421c-5.592,-0.393 -191.575,-51.504 -413.294,-113.582l-0.001,0Zm676.833,-390.148c139.354,-38.743 255.349,-73.642 257.766,-77.553c2.417,-3.911 19.065,-174.276 36.995,-378.589c17.93,-204.314 34.068,-376.817 35.863,-383.341c3.082,-11.208 -20.629,-11.863 -429.66,-11.863l-432.922,0l18.432,-194.883c10.138,-107.185 18.677,-195.16 18.975,-195.499c0.298,-0.339 63.837,-2.366 141.197,-4.504c126.848,-3.506 388.434,6.613 397.186,15.365c3.269,3.269 24.778,214.288 24.778,243.094c0,14.203 1.916,14.414 131.349,14.414l131.348,0l-3.095,-28.809c-1.702,-15.845 -12.829,-138.621 -24.725,-272.836l-21.63,-244.028l-506.557,-1.737c-402.994,-1.383 -506.569,0.003 -506.613,6.778c-0.035,4.684 -2.984,34.444 -6.564,66.134c-8.661,76.683 -74.723,817.606 -74.723,838.069l0,16.026l862.066,0l-3.843,25.42c-2.113,13.981 -8.813,84.901 -14.889,157.601c-6.076,72.7 -13.003,134.059 -15.394,136.355c-6.316,6.062 -259.886,73.803 -275.698,73.652c-7.342,-0.07 -72.83,-16.41 -145.53,-36.31l-132.181,-36.183l-4.847,-56.894c-2.666,-31.293 -6.722,-75.96 -9.013,-99.261l-4.165,-42.366l-128.253,0l-128.253,0l0.285,25.42c0.53,47.537 31.356,367.742 35.833,372.219c5.177,5.177 497.776,143.646 512.944,144.188c5.592,0.2 124.185,-31.336 263.539,-70.079l-0.001,0Z" style="fill:#f0be25;fill-rule:nonzero;"/><path id="path78" d="M1002.19,2725.99l-403.126,-112.868l-89.694,-1003.22c-49.331,-551.773 -89.837,-1014.66 -90.012,-1028.64l-0.318,-25.419l2006.45,0l0.13,15.252c0.181,21.295 -176.262,2011.72 -179.856,2028.92c-2.58,12.349 -51.218,27.376 -411.517,127.139c-224.724,62.223 -413.166,112.813 -418.758,112.421c-5.592,-0.393 -191.575,-51.504 -413.294,-113.582l-0.001,0Zm751.779,-150.996c177.333,-48.931 325.754,-92.399 329.825,-96.594c6.336,-6.528 159.493,-1685.08 158.876,-1741.24l-0.204,-18.641l-410.101,0l-410.102,0l0,94.899l-237.249,0c-185.25,0 -237.26,1.857 -237.304,8.473c-0.035,4.661 -2.984,34.401 -6.564,66.091c-8.661,76.683 -74.723,817.606 -74.723,838.069l0,16.026l555.84,0l0,196.578c0,152.811 -1.886,196.549 -8.473,196.45c-4.66,-0.071 -67.955,-16.41 -140.655,-36.31l-132.181,-36.183l-4.847,-56.894c-2.666,-31.293 -6.722,-75.96 -9.013,-99.261l-4.165,-42.366l-128.253,0l-128.253,0l0.285,25.42c0.812,72.707 32.265,369.494 39.641,374.053c4.484,2.771 122.398,36.652 262.033,75.292l253.881,70.253l0,127.425c0,70.083 2.089,127.424 4.642,127.424c2.553,0 149.731,-40.035 327.064,-88.967Zm-589.186,-1283.56c9.745,-106.184 19.046,-194.263 20.669,-195.732c1.624,-1.469 55.57,-4.126 119.881,-5.906l116.93,-3.235l0,397.934l-137.599,0l-137.599,0l17.718,-193.061Z" style="fill:#e4a126;fill-rule:nonzero;"/><path id="path76" d="M1056.22,315.202l0,-64.396l183.021,0l0,-125.403l0,-125.403l128.792,0l0,379.598l-155.906,0l-155.907,0l0,-64.396Zm372.82,13.557l0,-50.839l84.731,0c46.603,0 84.732,-1.723 84.732,-3.828c0,-2.106 -38.129,-45.153 -84.732,-95.66l-84.731,-91.832l0,-43.3l0,-43.3l352.484,0l0,101.261l-82.738,1.903l-82.738,1.903l86.127,92.752l86.127,92.752l0,89.027l-179.631,0l-179.631,0l0,-50.839Z" style="fill:#0e0e0f;fill-rule:nonzero;"/></svg>