<svg xmlns="http://www.w3.org/2000/svg" viewBox="0 0 362.7 512"><style>.a{fill:#ebebeb;}</style><g transform="translate(-193.633 -276.3622)translate(119 276.3622)"><polygon points="437.4 100.6 404.3 470.8 255.8 512 107.6 470.9 74.6 100.6 " fill="#264de4"/><polygon points="376 447.2 404.3 130.9 256 130.9 256 480.5 " fill="#2965f1"/><polygon points="150.3 268.2 154.4 313.6 256 313.6 256 268.2 " class="a"/><polygon points="256 176.3 255.8 176.3 142.1 176.3 146.3 221.7 256 221.7 " class="a"/><polygon points="256 433.4 256 386.2 255.8 386.2 205.2 372.6 202 336.3 177.4 336.3 156.4 336.3 162.8 407.6 255.8 433.5 " class="a"/><polygon points="311.8 313.6 306.5 372.5 255.8 386.2 255.8 433.4 348.9 407.6 349.6 400 360.3 280.4 361.4 268.2 369.6 176.3 255.8 176.3 255.8 221.7 319.8 221.7 315.7 268.2 255.8 268.2 255.8 313.6 " fill="#fff"/></g></svg>